<svg width="40" height="40" viewBox="0 0 40 40" fill="none" xmlns="http://www.w3.org/2000/svg">
<path d="M19.9728 0C8.9424 0 0 8.95458 0 20C0 31.0454 8.9424 40 19.9728 40C31.0032 40 39.9456 31.0454 39.9456 20C39.9456 8.95458 31.0032 0 19.9728 0ZM24.6576 17.8226H25.44H29.5104C29.52 17.9813 29.5344 18.1351 29.5344 18.2985C29.5344 22.0764 26.5008 25.143 22.7376 25.2007L22.7328 25.2055H17.7648H17.7312V30.0168H17.7264C17.7264 30.036 17.7312 30.0553 17.7312 30.0745C17.7312 33.8861 14.6448 36.9815 10.8336 36.9815C10.68 36.9815 10.5264 36.9719 10.3776 36.9623V31.7856V31.2473V11.5165C10.3776 11.4876 10.3776 11.4636 10.3776 11.4348C10.3776 7.69046 13.3728 4.63831 17.088 4.52776H26.1744H26.8224H31.0368C31.0464 4.66715 31.056 4.80173 31.056 4.94112C31.056 8.65177 28.1328 11.6847 24.4704 11.8481H24.4656H17.736V17.8274H24.6576V17.8226Z" fill="#098442"/>
</svg>
